<svg width="334" height="340" viewBox="0 0 334 340" fill="none" xmlns="http://www.w3.org/2000/svg">
<g clip-path="url(#clip0_6_30)">
<path d="M41.2207 305C40.9077 305 40.626 304.897 40.3756 304.69C40.1252 304.454 40 304.173 40 303.849V275.151C40 274.827 40.1252 274.561 40.3756 274.354C40.626 274.118 40.9077 274 41.2207 274H56.1981C59.0465 274 61.3784 274.354 63.1938 275.063C65.0093 275.771 66.3552 276.79 67.2316 278.119C68.1081 279.447 68.5463 281.086 68.5463 283.034C68.5463 284.038 68.3272 284.939 67.8889 285.736C67.482 286.503 66.9812 287.153 66.3865 287.684C65.7918 288.186 65.2284 288.555 64.6963 288.791C65.917 289.293 66.9812 290.15 67.8889 291.36C68.7967 292.541 69.2505 293.899 69.2505 295.434C69.2505 297.501 68.7497 299.243 67.7481 300.66C66.7778 302.077 65.3536 303.155 63.4755 303.893C61.6288 304.631 59.3595 305 56.6676 305H41.2207ZM50.0945 298.313H55.5878C56.652 298.313 57.4345 298.018 57.9353 297.427C58.4361 296.807 58.6865 296.128 58.6865 295.39C58.6865 294.622 58.4205 293.958 57.8884 293.397C57.3563 292.807 56.5894 292.511 55.5878 292.511H50.0945V298.313ZM50.0945 286.001H55.1182C56.1199 286.001 56.8554 285.736 57.325 285.204C57.7945 284.673 58.0292 284.053 58.0292 283.344C58.0292 282.636 57.7945 282.016 57.325 281.484C56.8554 280.953 56.1199 280.687 55.1182 280.687H50.0945V286.001Z" fill="#E2E2E2"/>
<path d="M76.7683 305C76.4866 305 76.2518 304.911 76.064 304.734C75.8762 304.528 75.7823 304.291 75.7823 304.026C75.7823 303.908 75.798 303.804 75.8293 303.716L86.5341 275.373C86.6593 275.048 86.8784 274.738 87.1914 274.443C87.5044 274.148 87.9426 274 88.5061 274H97.0981C97.6928 274 98.1467 274.148 98.4597 274.443C98.7727 274.738 98.9762 275.048 99.0701 275.373L109.822 303.716C109.853 303.804 109.869 303.908 109.869 304.026C109.869 304.291 109.759 304.528 109.54 304.734C109.352 304.911 109.118 305 108.836 305H101.605C101.073 305 100.682 304.882 100.432 304.646C100.181 304.41 100.009 304.188 99.9152 303.981L98.4597 300.261H87.1445L85.689 303.981C85.5951 304.188 85.4229 304.41 85.1725 304.646C84.9534 304.882 84.5622 305 83.9988 305H76.7683ZM89.3042 292.777H96.2999L92.7786 282.813L89.3042 292.777Z" fill="#E2E2E2"/>
<path d="M119.422 305C119.109 305 118.827 304.897 118.576 304.69C118.326 304.454 118.201 304.173 118.201 303.849V275.151C118.201 274.827 118.326 274.561 118.576 274.354C118.827 274.118 119.109 274 119.422 274H126.887C127.231 274 127.513 274.118 127.732 274.354C127.982 274.561 128.108 274.827 128.108 275.151V284.451L135.103 274.93C135.26 274.723 135.479 274.517 135.761 274.31C136.042 274.103 136.434 274 136.934 274H145.526C145.808 274 146.043 274.103 146.231 274.31C146.45 274.487 146.559 274.709 146.559 274.974C146.559 275.151 146.497 275.314 146.372 275.461L136.512 288.836L147.217 303.539C147.342 303.657 147.404 303.819 147.404 304.026C147.404 304.291 147.295 304.528 147.076 304.734C146.888 304.911 146.653 305 146.372 305H137.545C136.919 305 136.449 304.867 136.136 304.601C135.854 304.336 135.682 304.144 135.62 304.026L128.108 293.751V303.849C128.108 304.173 127.982 304.454 127.732 304.69C127.513 304.897 127.231 305 126.887 305H119.422Z" fill="#E2E2E2"/>
<path d="M157.009 305C156.696 305 156.414 304.897 156.164 304.69C155.913 304.454 155.788 304.173 155.788 303.849V275.151C155.788 274.827 155.913 274.561 156.164 274.354C156.414 274.118 156.696 274 157.009 274H164.803C165.147 274 165.444 274.118 165.695 274.354C165.945 274.561 166.071 274.827 166.071 275.151V297.117H179.639C179.984 297.117 180.281 297.235 180.531 297.471C180.782 297.678 180.907 297.944 180.907 298.269V303.849C180.907 304.173 180.782 304.454 180.531 304.69C180.281 304.897 179.984 305 179.639 305H157.009Z" fill="#E2E2E2"/>
<path d="M188.017 305C187.736 305 187.501 304.911 187.313 304.734C187.125 304.528 187.031 304.291 187.031 304.026C187.031 303.908 187.047 303.804 187.078 303.716L197.783 275.373C197.908 275.048 198.127 274.738 198.44 274.443C198.753 274.148 199.192 274 199.755 274H208.347C208.942 274 209.396 274.148 209.709 274.443C210.022 274.738 210.225 275.048 210.319 275.373L221.071 303.716C221.102 303.804 221.118 303.908 221.118 304.026C221.118 304.291 221.008 304.528 220.789 304.734C220.601 304.911 220.367 305 220.085 305H212.854C212.322 305 211.931 304.882 211.681 304.646C211.43 304.41 211.258 304.188 211.164 303.981L209.709 300.261H198.393L196.938 303.981C196.844 304.188 196.672 304.41 196.422 304.646C196.202 304.882 195.811 305 195.248 305H188.017ZM200.553 292.777H207.549L204.028 282.813L200.553 292.777Z" fill="#E2E2E2"/>
<path d="M236.041 305C235.446 305 234.977 304.852 234.632 304.557C234.319 304.262 234.116 303.952 234.022 303.627L224.773 275.284C224.741 275.166 224.726 275.063 224.726 274.974C224.726 274.709 224.82 274.487 225.007 274.31C225.227 274.103 225.477 274 225.759 274H233.036C233.6 274 234.038 274.148 234.351 274.443C234.664 274.738 234.867 275.033 234.961 275.329L240.501 293.796L246.042 275.329C246.135 275.033 246.339 274.738 246.652 274.443C246.965 274.148 247.403 274 247.967 274H255.244C255.526 274 255.76 274.103 255.948 274.31C256.136 274.487 256.23 274.709 256.23 274.974C256.23 275.063 256.214 275.166 256.183 275.284L246.981 303.627C246.887 303.952 246.668 304.262 246.323 304.557C246.01 304.852 245.556 305 244.962 305H236.041Z" fill="#E2E2E2"/>
<path d="M260.899 305C260.618 305 260.383 304.911 260.195 304.734C260.007 304.528 259.914 304.291 259.914 304.026C259.914 303.908 259.929 303.804 259.96 303.716L270.665 275.373C270.791 275.048 271.01 274.738 271.323 274.443C271.636 274.148 272.074 274 272.637 274H281.229C281.824 274 282.278 274.148 282.591 274.443C282.904 274.738 283.107 275.048 283.201 275.373L293.953 303.716C293.984 303.804 294 303.908 294 304.026C294 304.291 293.89 304.528 293.671 304.734C293.484 304.911 293.249 305 292.967 305H285.737C285.204 305 284.813 304.882 284.563 304.646C284.312 304.41 284.14 304.188 284.046 303.981L282.591 300.261H271.276L269.82 303.981C269.726 304.188 269.554 304.41 269.304 304.646C269.085 304.882 268.693 305 268.13 305H260.899ZM273.435 292.777H280.431L276.91 282.813L273.435 292.777Z" fill="#E2E2E2"/>
<path d="M40.5204 335.623C40.3678 335.623 40.2429 335.577 40.1457 335.484C40.0486 335.378 40 335.258 40 335.126V322.194C40 322.048 40.0486 321.928 40.1457 321.836C40.2429 321.743 40.3678 321.696 40.5204 321.696H45.933C47.2931 321.696 48.4519 321.909 49.4095 322.333C50.3671 322.744 51.1027 323.354 51.6162 324.163C52.1297 324.959 52.4072 325.947 52.4489 327.128C52.4628 327.711 52.4697 328.222 52.4697 328.66C52.4697 329.097 52.4628 329.601 52.4489 330.172C52.3934 331.405 52.1158 332.427 51.6162 333.236C51.1304 334.045 50.4157 334.648 49.472 335.046C48.5421 335.431 47.3972 335.623 46.0371 335.623H40.5204ZM43.7472 332.758H45.933C46.5298 332.758 47.0224 332.672 47.411 332.499C47.8135 332.314 48.1119 332.029 48.3062 331.644C48.5144 331.259 48.6254 330.755 48.6393 330.132C48.667 329.747 48.6809 329.402 48.6809 329.097C48.6948 328.792 48.6948 328.487 48.6809 328.182C48.6809 327.877 48.667 327.539 48.6393 327.168C48.6115 326.266 48.3617 325.609 47.8898 325.198C47.4319 324.773 46.7449 324.561 45.8289 324.561H43.7472V332.758Z" fill="#95A1B5"/>
<path d="M68.204 335.822C66.5664 335.822 65.2618 335.398 64.2903 334.549C63.3188 333.7 62.8123 332.44 62.7706 330.769C62.7706 330.676 62.7706 330.556 62.7706 330.41C62.7706 330.265 62.7706 330.152 62.7706 330.072C62.8123 329.024 63.0551 328.129 63.4992 327.386C63.9572 326.63 64.5818 326.06 65.3728 325.675C66.1778 325.277 67.1146 325.079 68.1832 325.079C69.4045 325.079 70.4107 325.311 71.2017 325.775C72.0067 326.239 72.6104 326.869 73.0129 327.665C73.4153 328.461 73.6166 329.369 73.6166 330.391V330.868C73.6166 331.014 73.568 331.133 73.4708 331.226C73.3737 331.319 73.2488 331.365 73.0961 331.365H66.4345C66.4345 331.379 66.4345 331.399 66.4345 331.425C66.4345 331.452 66.4345 331.478 66.4345 331.505C66.4484 331.889 66.5178 332.241 66.6427 332.559C66.7815 332.877 66.9758 333.129 67.2256 333.315C67.4893 333.501 67.8085 333.594 68.1832 333.594C68.4608 333.594 68.6897 333.554 68.8702 333.474C69.0645 333.382 69.2241 333.282 69.349 333.176C69.4739 333.057 69.571 332.957 69.6404 332.877C69.7653 332.732 69.8625 332.645 69.9319 332.619C70.0151 332.579 70.14 332.559 70.3066 332.559H72.8879C73.0267 332.559 73.1378 332.599 73.221 332.679C73.3182 332.758 73.3598 332.864 73.3459 332.997C73.3321 333.222 73.2141 333.494 72.992 333.813C72.77 334.131 72.4438 334.449 72.0136 334.768C71.5973 335.073 71.0699 335.325 70.4315 335.524C69.7931 335.723 69.0506 335.822 68.204 335.822ZM66.4345 329.396H69.9527V329.356C69.9527 328.918 69.8833 328.547 69.7445 328.242C69.6196 327.924 69.4184 327.678 69.1408 327.506C68.8771 327.333 68.5579 327.247 68.1832 327.247C67.8224 327.247 67.5101 327.333 67.2464 327.506C66.9827 327.678 66.7815 327.924 66.6427 328.242C66.5039 328.547 66.4345 328.918 66.4345 329.356V329.396Z" fill="#95A1B5"/>
<path d="M88.5583 335.822C87.6562 335.822 86.886 335.729 86.2476 335.543C85.6231 335.345 85.1096 335.106 84.7071 334.827C84.3185 334.549 84.0271 334.264 83.8328 333.972C83.6385 333.667 83.5344 333.401 83.5205 333.176C83.5066 333.03 83.5552 332.911 83.6662 332.818C83.7772 332.725 83.8952 332.679 84.0201 332.679H86.3933C86.4349 332.679 86.4696 332.685 86.4974 332.698C86.539 332.712 86.5807 332.738 86.6223 332.778C86.8027 332.871 86.9831 332.99 87.1636 333.136C87.344 333.269 87.5522 333.388 87.7881 333.494C88.024 333.6 88.3085 333.653 88.6416 333.653C89.0302 333.653 89.3563 333.58 89.62 333.435C89.8837 333.275 90.0156 333.057 90.0156 332.778C90.0156 332.566 89.9531 332.393 89.8282 332.261C89.7033 332.115 89.4466 331.976 89.058 331.843C88.6832 331.71 88.1142 331.578 87.3509 331.445C86.6292 331.286 85.9978 331.08 85.4565 330.828C84.9153 330.563 84.4989 330.225 84.2075 329.814C83.916 329.389 83.7703 328.879 83.7703 328.282C83.7703 327.751 83.9507 327.24 84.3116 326.75C84.6724 326.259 85.1998 325.861 85.8937 325.556C86.5876 325.238 87.4481 325.079 88.4751 325.079C89.2661 325.079 89.9601 325.171 90.5568 325.357C91.1536 325.529 91.6532 325.755 92.0557 326.034C92.4582 326.312 92.7635 326.597 92.9717 326.889C93.1798 327.181 93.2909 327.446 93.3047 327.685C93.3186 327.817 93.277 327.937 93.1798 328.043C93.0827 328.136 92.9717 328.182 92.8468 328.182H90.6817C90.6262 328.182 90.5707 328.176 90.5152 328.162C90.4597 328.136 90.4111 328.109 90.3695 328.083C90.2029 328.003 90.0364 327.897 89.8698 327.764C89.7033 327.632 89.509 327.512 89.287 327.406C89.0649 327.3 88.7873 327.247 88.4542 327.247C88.0795 327.247 87.7881 327.327 87.5799 327.486C87.3717 327.645 87.2677 327.851 87.2677 328.103C87.2677 328.275 87.3232 328.434 87.4342 328.58C87.5591 328.726 87.802 328.859 88.1628 328.978C88.5375 329.097 89.1135 329.23 89.8907 329.376C90.8483 329.522 91.6116 329.761 92.1806 330.092C92.7496 330.41 93.1521 330.788 93.388 331.226C93.6378 331.651 93.7627 332.102 93.7627 332.579C93.7627 333.216 93.5615 333.779 93.159 334.27C92.7565 334.761 92.1667 335.146 91.3895 335.424C90.6262 335.689 89.6825 335.822 88.5583 335.822Z" fill="#95A1B5"/>
<path d="M104.666 335.623C104.513 335.623 104.388 335.577 104.291 335.484C104.194 335.378 104.145 335.258 104.145 335.126V325.775C104.145 325.629 104.194 325.51 104.291 325.417C104.388 325.324 104.513 325.277 104.666 325.277H107.122C107.275 325.277 107.4 325.324 107.497 325.417C107.594 325.51 107.642 325.629 107.642 325.775V335.126C107.642 335.258 107.594 335.378 107.497 335.484C107.4 335.577 107.275 335.623 107.122 335.623H104.666ZM104.645 323.785C104.492 323.785 104.367 323.739 104.27 323.646C104.173 323.553 104.124 323.434 104.124 323.288V321.497C104.124 321.365 104.173 321.252 104.27 321.159C104.367 321.053 104.492 321 104.645 321H107.143C107.282 321 107.4 321.053 107.497 321.159C107.608 321.252 107.663 321.365 107.663 321.497V323.288C107.663 323.434 107.608 323.553 107.497 323.646C107.4 323.739 107.282 323.785 107.143 323.785H104.645Z" fill="#95A1B5"/>
<path d="M123.945 340C122.877 340 121.989 339.867 121.281 339.602C120.587 339.337 120.032 339.018 119.615 338.647C119.213 338.276 118.921 337.904 118.741 337.533C118.561 337.175 118.463 336.89 118.45 336.677C118.436 336.532 118.484 336.406 118.595 336.299C118.706 336.207 118.838 336.16 118.991 336.16H121.635C121.773 336.16 121.884 336.193 121.968 336.26C122.051 336.326 122.12 336.432 122.176 336.578C122.259 336.724 122.356 336.87 122.467 337.016C122.578 337.175 122.738 337.308 122.946 337.414C123.168 337.52 123.467 337.573 123.841 337.573C124.258 337.573 124.605 337.506 124.882 337.374C125.16 337.254 125.368 337.049 125.507 336.757C125.645 336.479 125.715 336.101 125.715 335.623V334.29C125.396 334.622 124.986 334.894 124.487 335.106C123.987 335.305 123.383 335.404 122.675 335.404C121.968 335.404 121.343 335.305 120.802 335.106C120.261 334.907 119.81 334.608 119.449 334.21C119.088 333.813 118.803 333.328 118.595 332.758C118.401 332.188 118.283 331.531 118.241 330.788C118.227 330.444 118.227 330.092 118.241 329.734C118.283 329.031 118.401 328.394 118.595 327.824C118.79 327.24 119.067 326.75 119.428 326.352C119.803 325.941 120.261 325.629 120.802 325.417C121.343 325.191 121.968 325.079 122.675 325.079C123.425 325.079 124.063 325.218 124.591 325.496C125.132 325.762 125.576 326.1 125.923 326.511V325.775C125.923 325.642 125.972 325.529 126.069 325.437C126.166 325.331 126.291 325.277 126.443 325.277H128.837C128.99 325.277 129.115 325.331 129.212 325.437C129.323 325.529 129.379 325.642 129.379 325.775V335.345C129.379 336.353 129.164 337.201 128.733 337.891C128.317 338.581 127.699 339.105 126.881 339.463C126.076 339.821 125.097 340 123.945 340ZM123.8 332.818C124.244 332.818 124.605 332.725 124.882 332.539C125.16 332.354 125.361 332.115 125.486 331.823C125.625 331.531 125.701 331.22 125.715 330.888C125.729 330.742 125.736 330.536 125.736 330.271C125.736 330.006 125.729 329.807 125.715 329.674C125.701 329.329 125.625 329.011 125.486 328.719C125.361 328.428 125.16 328.195 124.882 328.023C124.605 327.837 124.244 327.745 123.8 327.745C123.342 327.745 122.974 327.837 122.696 328.023C122.433 328.209 122.238 328.461 122.113 328.779C122.002 329.097 121.933 329.449 121.905 329.834C121.891 330.125 121.891 330.424 121.905 330.729C121.933 331.113 122.002 331.465 122.113 331.783C122.238 332.102 122.433 332.354 122.696 332.539C122.974 332.725 123.342 332.818 123.8 332.818Z" fill="#95A1B5"/>
<path d="M140.886 335.623C140.734 335.623 140.609 335.577 140.512 335.484C140.415 335.378 140.366 335.258 140.366 335.126V325.775C140.366 325.629 140.415 325.51 140.512 325.417C140.609 325.324 140.734 325.277 140.886 325.277H143.28C143.433 325.277 143.558 325.324 143.655 325.417C143.766 325.51 143.822 325.629 143.822 325.775V326.531C144.169 326.12 144.634 325.775 145.216 325.496C145.799 325.218 146.486 325.079 147.277 325.079C148.082 325.079 148.79 325.251 149.401 325.596C150.025 325.941 150.511 326.445 150.858 327.108C151.219 327.771 151.399 328.593 151.399 329.575V335.126C151.399 335.258 151.351 335.378 151.254 335.484C151.156 335.577 151.032 335.623 150.879 335.623H148.256C148.117 335.623 147.992 335.577 147.881 335.484C147.784 335.378 147.735 335.258 147.735 335.126V329.694C147.735 329.071 147.576 328.593 147.257 328.262C146.951 327.917 146.493 327.745 145.883 327.745C145.314 327.745 144.856 327.917 144.509 328.262C144.176 328.593 144.009 329.071 144.009 329.694V335.126C144.009 335.258 143.954 335.378 143.843 335.484C143.745 335.577 143.627 335.623 143.489 335.623H140.886Z" fill="#95A1B5"/>
<path d="M180.907 335.822C179.52 335.822 178.368 335.636 177.452 335.265C176.536 334.88 175.842 334.383 175.37 333.773C174.898 333.163 174.648 332.513 174.621 331.823C174.621 331.717 174.662 331.624 174.745 331.545C174.843 331.452 174.954 331.405 175.079 331.405H177.702C177.896 331.405 178.042 331.438 178.139 331.505C178.25 331.571 178.347 331.657 178.43 331.763C178.541 331.962 178.694 332.155 178.888 332.34C179.096 332.526 179.367 332.679 179.7 332.798C180.033 332.904 180.436 332.957 180.907 332.957C181.712 332.957 182.316 332.838 182.719 332.599C183.135 332.36 183.343 332.035 183.343 331.624C183.343 331.319 183.232 331.074 183.01 330.888C182.788 330.702 182.427 330.536 181.928 330.391C181.442 330.231 180.79 330.072 179.971 329.913C178.916 329.701 178.014 329.429 177.264 329.097C176.529 328.753 175.967 328.308 175.578 327.764C175.19 327.207 174.995 326.518 174.995 325.695C174.995 324.886 175.231 324.163 175.703 323.527C176.189 322.89 176.862 322.393 177.722 322.035C178.583 321.676 179.603 321.497 180.783 321.497C181.74 321.497 182.58 321.617 183.301 321.855C184.037 322.094 184.655 322.413 185.154 322.81C185.654 323.208 186.029 323.633 186.278 324.084C186.542 324.521 186.681 324.953 186.695 325.377C186.695 325.483 186.653 325.583 186.57 325.675C186.5 325.755 186.396 325.795 186.258 325.795H183.51C183.357 325.795 183.225 325.768 183.114 325.715C183.003 325.662 182.906 325.576 182.823 325.457C182.739 325.165 182.517 324.913 182.157 324.701C181.81 324.475 181.352 324.362 180.783 324.362C180.172 324.362 179.693 324.468 179.346 324.681C179.013 324.88 178.847 325.191 178.847 325.616C178.847 325.881 178.937 326.113 179.117 326.312C179.311 326.511 179.624 326.683 180.054 326.829C180.498 326.975 181.102 327.128 181.865 327.287C183.128 327.512 184.148 327.798 184.925 328.142C185.702 328.474 186.271 328.912 186.632 329.455C187.007 329.986 187.194 330.656 187.194 331.465C187.194 332.367 186.924 333.143 186.382 333.793C185.841 334.443 185.099 334.947 184.155 335.305C183.225 335.65 182.143 335.822 180.907 335.822Z" fill="#95A1B5"/>
<path d="M199.542 339.403C199.418 339.403 199.313 339.363 199.23 339.284C199.147 339.204 199.105 339.105 199.105 338.985C199.105 338.959 199.105 338.919 199.105 338.866C199.119 338.826 199.14 338.78 199.168 338.727L200.791 334.986L196.794 325.954C196.753 325.861 196.732 325.782 196.732 325.715C196.76 325.596 196.815 325.496 196.899 325.417C196.982 325.324 197.086 325.277 197.211 325.277H199.584C199.764 325.277 199.896 325.324 199.98 325.417C200.077 325.496 200.146 325.589 200.188 325.695L202.561 331.485L204.997 325.695C205.052 325.589 205.122 325.496 205.205 325.417C205.302 325.324 205.441 325.277 205.621 325.277H207.953C208.078 325.277 208.182 325.324 208.265 325.417C208.362 325.496 208.411 325.589 208.411 325.695C208.411 325.762 208.39 325.848 208.348 325.954L202.457 338.985C202.415 339.091 202.346 339.184 202.249 339.264C202.152 339.357 202.013 339.403 201.832 339.403H199.542Z" fill="#95A1B5"/>
<path d="M222.589 335.822C221.687 335.822 220.917 335.729 220.278 335.543C219.654 335.345 219.14 335.106 218.738 334.827C218.349 334.549 218.058 334.264 217.863 333.972C217.669 333.667 217.565 333.401 217.551 333.176C217.537 333.03 217.586 332.911 217.697 332.818C217.808 332.725 217.926 332.679 218.051 332.679H220.424C220.466 332.679 220.5 332.685 220.528 332.698C220.57 332.712 220.611 332.738 220.653 332.778C220.833 332.871 221.014 332.99 221.194 333.136C221.375 333.269 221.583 333.388 221.819 333.494C222.055 333.6 222.339 333.653 222.672 333.653C223.061 333.653 223.387 333.58 223.651 333.435C223.914 333.275 224.046 333.057 224.046 332.778C224.046 332.566 223.984 332.393 223.859 332.261C223.734 332.115 223.477 331.976 223.089 331.843C222.714 331.71 222.145 331.578 221.382 331.445C220.66 331.286 220.028 331.08 219.487 330.828C218.946 330.563 218.53 330.225 218.238 329.814C217.947 329.389 217.801 328.879 217.801 328.282C217.801 327.751 217.981 327.24 218.342 326.75C218.703 326.259 219.23 325.861 219.924 325.556C220.618 325.238 221.479 325.079 222.506 325.079C223.297 325.079 223.991 325.171 224.588 325.357C225.184 325.529 225.684 325.755 226.086 326.034C226.489 326.312 226.794 326.597 227.002 326.889C227.211 327.181 227.322 327.446 227.335 327.685C227.349 327.817 227.308 327.937 227.211 328.043C227.113 328.136 227.002 328.182 226.877 328.182H224.712C224.657 328.182 224.601 328.176 224.546 328.162C224.49 328.136 224.442 328.109 224.4 328.083C224.234 328.003 224.067 327.897 223.901 327.764C223.734 327.632 223.54 327.512 223.318 327.406C223.096 327.3 222.818 327.247 222.485 327.247C222.11 327.247 221.819 327.327 221.611 327.486C221.402 327.645 221.298 327.851 221.298 328.103C221.298 328.275 221.354 328.434 221.465 328.58C221.59 328.726 221.833 328.859 222.193 328.978C222.568 329.097 223.144 329.23 223.921 329.376C224.879 329.522 225.642 329.761 226.211 330.092C226.78 330.41 227.183 330.788 227.419 331.226C227.669 331.651 227.793 332.102 227.793 332.579C227.793 333.216 227.592 333.779 227.19 334.27C226.787 334.761 226.197 335.146 225.42 335.424C224.657 335.689 223.713 335.822 222.589 335.822Z" fill="#95A1B5"/>
<path d="M243.673 335.623C242.784 335.623 242.014 335.49 241.362 335.225C240.723 334.947 240.231 334.522 239.884 333.952C239.537 333.368 239.363 332.619 239.363 331.704V327.884H237.74C237.587 327.884 237.455 327.837 237.344 327.745C237.247 327.652 237.198 327.532 237.198 327.386V325.775C237.198 325.629 237.247 325.51 237.344 325.417C237.455 325.324 237.587 325.277 237.74 325.277H239.363V321.995C239.363 321.849 239.412 321.729 239.509 321.637C239.62 321.544 239.745 321.497 239.884 321.497H242.299C242.451 321.497 242.576 321.544 242.673 321.637C242.771 321.729 242.819 321.849 242.819 321.995V325.277H245.421C245.574 325.277 245.699 325.324 245.796 325.417C245.907 325.51 245.963 325.629 245.963 325.775V327.386C245.963 327.532 245.907 327.652 245.796 327.745C245.699 327.837 245.574 327.884 245.421 327.884H242.819V331.425C242.819 331.876 242.909 332.234 243.09 332.499C243.27 332.765 243.575 332.897 244.006 332.897H245.609C245.761 332.897 245.886 332.944 245.983 333.037C246.081 333.129 246.129 333.249 246.129 333.395V335.126C246.129 335.258 246.081 335.378 245.983 335.484C245.886 335.577 245.761 335.623 245.609 335.623H243.673Z" fill="#95A1B5"/>
<path d="M261.384 335.822C259.746 335.822 258.442 335.398 257.47 334.549C256.499 333.7 255.992 332.44 255.951 330.769C255.951 330.676 255.951 330.556 255.951 330.41C255.951 330.265 255.951 330.152 255.951 330.072C255.992 329.024 256.235 328.129 256.679 327.386C257.137 326.63 257.762 326.06 258.553 325.675C259.358 325.277 260.295 325.079 261.363 325.079C262.585 325.079 263.591 325.311 264.382 325.775C265.187 326.239 265.791 326.869 266.193 327.665C266.595 328.461 266.797 329.369 266.797 330.391V330.868C266.797 331.014 266.748 331.133 266.651 331.226C266.554 331.319 266.429 331.365 266.276 331.365H259.615C259.615 331.379 259.615 331.399 259.615 331.425C259.615 331.452 259.615 331.478 259.615 331.505C259.629 331.889 259.698 332.241 259.823 332.559C259.962 332.877 260.156 333.129 260.406 333.315C260.669 333.501 260.989 333.594 261.363 333.594C261.641 333.594 261.87 333.554 262.05 333.474C262.245 333.382 262.404 333.282 262.529 333.176C262.654 333.057 262.751 332.957 262.821 332.877C262.945 332.732 263.043 332.645 263.112 332.619C263.195 332.579 263.32 332.559 263.487 332.559H266.068C266.207 332.559 266.318 332.599 266.401 332.679C266.498 332.758 266.54 332.864 266.526 332.997C266.512 333.222 266.394 333.494 266.172 333.813C265.95 334.131 265.624 334.449 265.194 334.768C264.777 335.073 264.25 335.325 263.612 335.524C262.973 335.723 262.231 335.822 261.384 335.822ZM259.615 329.396H263.133V329.356C263.133 328.918 263.063 328.547 262.925 328.242C262.8 327.924 262.598 327.678 262.321 327.506C262.057 327.333 261.738 327.247 261.363 327.247C261.002 327.247 260.69 327.333 260.427 327.506C260.163 327.678 259.962 327.924 259.823 328.242C259.684 328.547 259.615 328.918 259.615 329.356V329.396Z" fill="#95A1B5"/>
<path d="M277.804 335.623C277.651 335.623 277.526 335.577 277.429 335.484C277.332 335.378 277.284 335.258 277.284 335.126V325.775C277.284 325.629 277.332 325.51 277.429 325.417C277.526 325.324 277.651 325.277 277.804 325.277H280.073C280.226 325.277 280.351 325.324 280.448 325.417C280.545 325.51 280.594 325.629 280.594 325.775V326.451C280.871 326.093 281.26 325.782 281.759 325.516C282.259 325.238 282.849 325.092 283.529 325.079C285.139 325.039 286.242 325.609 286.839 326.79C287.158 326.286 287.609 325.874 288.192 325.556C288.789 325.238 289.441 325.079 290.149 325.079C290.87 325.079 291.516 325.238 292.085 325.556C292.668 325.861 293.133 326.339 293.48 326.988C293.827 327.625 294 328.454 294 329.475V335.126C294 335.258 293.951 335.378 293.854 335.484C293.757 335.577 293.632 335.623 293.48 335.623H291.065C290.912 335.623 290.78 335.577 290.669 335.484C290.572 335.378 290.523 335.258 290.523 335.126V329.615C290.523 329.15 290.454 328.786 290.315 328.52C290.177 328.242 289.989 328.043 289.753 327.924C289.517 327.804 289.247 327.745 288.941 327.745C288.692 327.745 288.442 327.804 288.192 327.924C287.956 328.043 287.762 328.242 287.609 328.52C287.47 328.786 287.401 329.15 287.401 329.615V335.126C287.401 335.258 287.352 335.378 287.255 335.484C287.158 335.577 287.033 335.623 286.88 335.623H284.466C284.313 335.623 284.188 335.577 284.091 335.484C283.994 335.378 283.945 335.258 283.945 335.126V329.615C283.945 329.15 283.869 328.786 283.716 328.52C283.563 328.242 283.369 328.043 283.133 327.924C282.897 327.804 282.641 327.745 282.363 327.745C282.099 327.745 281.843 327.804 281.593 327.924C281.357 328.043 281.163 328.242 281.01 328.52C280.871 328.786 280.802 329.144 280.802 329.595V335.126C280.802 335.258 280.746 335.378 280.635 335.484C280.538 335.577 280.42 335.623 280.281 335.623H277.804Z" fill="#95A1B5"/>
<path fill-rule="evenodd" clip-rule="evenodd" d="M125.771 38.2522C125.299 37.9706 125.314 37.5226 125.804 37.2515C126.294 36.9805 127.074 36.989 127.546 37.2706L131.734 39.7697C132.206 40.0513 132.191 40.4993 131.701 40.7703C131.211 41.0413 130.431 41.0328 129.959 40.7512L125.771 38.2522ZM135.822 44.25C135.35 43.9684 135.365 43.5204 135.855 43.2493C136.345 42.9783 137.125 42.9868 137.597 43.2684L141.785 45.7675C142.257 46.0491 142.242 46.4971 141.752 46.7681C141.262 47.0392 140.482 47.0306 140.01 46.749L135.822 44.25ZM145.873 50.2478C145.401 49.9662 145.416 49.5182 145.906 49.2471C146.397 48.9761 147.177 48.9846 147.648 49.2662L151.836 51.7653C152.308 52.0469 152.294 52.4949 151.803 52.7659C151.313 53.037 150.533 53.0284 150.061 52.7468L145.873 50.2478ZM155.925 56.2456C155.453 55.964 155.467 55.516 155.958 55.2449C156.448 54.9739 157.228 54.9824 157.7 55.264L161.888 57.7631C162.36 58.0447 162.345 58.4927 161.855 58.7637C161.364 59.0348 160.584 59.0262 160.113 58.7446L155.925 56.2456ZM165.976 62.2434C165.504 61.9618 165.519 61.5138 166.009 61.2428C166.499 60.9717 167.279 60.9802 167.751 61.2618L169.434 62.2662L171.916 60.8066C172.391 60.527 173.171 60.5217 173.658 60.7947C174.145 61.0678 174.154 61.5159 173.678 61.7955L171.144 63.2863L171.939 63.7609C172.411 64.0425 172.396 64.4905 171.906 64.7615C171.416 65.0326 170.636 65.024 170.164 64.7425L169.421 64.2994L169.328 64.3541C168.853 64.6337 168.073 64.639 167.586 64.3659C167.099 64.0929 167.09 63.6448 167.565 63.3652L167.712 63.2792L165.976 62.2434ZM176.027 68.2412C175.555 67.9596 175.57 67.5116 176.06 67.2406C176.55 66.9695 177.33 66.978 177.802 67.2596L181.99 69.7587C182.462 70.0403 182.447 70.4883 181.957 70.7593C181.467 71.0304 180.687 71.0218 180.215 70.7403L176.027 68.2412ZM186.078 74.239C185.606 73.9574 185.621 73.5094 186.111 73.2384C186.602 72.9673 187.381 72.9759 187.853 73.2574L192.041 75.7565C192.513 76.0381 192.498 76.4861 192.008 76.7571C191.518 77.0282 190.738 77.0196 190.266 76.7381L186.078 74.239ZM196.129 80.2368C195.658 79.9552 195.672 79.5072 196.163 79.2362C196.653 78.9651 197.433 78.9737 197.905 79.2552L202.093 81.7543C202.564 82.0359 202.55 82.4839 202.059 82.7549C201.569 83.026 200.789 83.0174 200.317 82.7359L196.129 80.2368ZM206.181 86.2346C205.709 85.953 205.724 85.505 206.214 85.234C206.704 84.9629 207.484 84.9715 207.956 85.253L212.144 87.7521C212.616 88.0337 212.601 88.4817 212.111 88.7527C211.62 89.0238 210.84 89.0152 210.369 88.7337L206.181 86.2346ZM216.232 92.2324C215.76 91.9508 215.775 91.5028 216.265 91.2318C216.755 90.9607 217.535 90.9693 218.007 91.2508L222.195 93.7499C222.667 94.0315 222.652 94.4795 222.162 94.7505C221.672 95.0216 220.892 95.0131 220.42 94.7315L216.232 92.2324ZM226.283 98.2302C225.811 97.9486 225.826 97.5006 226.316 97.2296C226.806 96.9585 227.586 96.9671 228.058 97.2486L232.246 99.7477C232.718 100.029 232.703 100.477 232.213 100.748C231.723 101.019 230.943 101.011 230.471 100.729L226.283 98.2302ZM236.334 104.228C235.862 103.946 235.877 103.498 236.367 103.227C236.858 102.956 237.638 102.965 238.109 103.246L242.297 105.746C242.769 106.027 242.754 106.475 242.264 106.746C241.774 107.017 240.994 107.009 240.522 106.727L236.334 104.228ZM246.385 110.226C245.914 109.944 245.928 109.496 246.419 109.225C246.909 108.954 247.689 108.963 248.161 109.244L252.349 111.743C252.82 112.025 252.806 112.473 252.315 112.744C251.825 113.015 251.045 113.006 250.573 112.725L246.385 110.226ZM256.437 116.224C255.965 115.942 255.98 115.494 256.47 115.223C256.96 114.952 257.74 114.96 258.212 115.242L262.4 117.741C262.872 118.023 262.857 118.471 262.367 118.742C261.876 119.013 261.097 119.004 260.625 118.723L256.437 116.224ZM266.488 122.221C266.016 121.94 266.031 121.492 266.521 121.221C267.011 120.95 267.791 120.958 268.263 121.24L272.451 123.739C272.923 124.021 272.908 124.468 272.418 124.74C271.928 125.011 271.148 125.002 270.676 124.72L266.488 122.221ZM276.539 128.219C276.067 127.938 276.082 127.49 276.572 127.219C277.062 126.948 277.842 126.956 278.314 127.238L282.502 129.737C282.974 130.018 282.959 130.466 282.469 130.737C281.979 131.008 281.199 131 280.727 130.718L276.539 128.219ZM286.59 134.217C286.118 133.935 286.133 133.487 286.623 133.216C287.114 132.945 287.894 132.954 288.365 133.235L292.553 135.735C293.025 136.016 293.01 136.464 292.52 136.735C292.03 137.006 291.25 136.998 290.778 136.716L286.59 134.217ZM296.642 140.215C296.17 139.933 296.184 139.485 296.675 139.214C297.165 138.943 297.945 138.952 298.417 139.233L302.605 141.732C303.077 142.014 303.062 142.462 302.572 142.733C302.081 143.004 301.301 142.995 300.829 142.714L296.642 140.215ZM306.693 146.213C306.221 145.931 306.236 145.483 306.726 145.212C307.216 144.941 307.996 144.949 308.468 145.231L312.656 147.73C313.128 148.012 313.113 148.46 312.623 148.731C312.132 149.002 311.353 148.993 310.881 148.712L306.693 146.213ZM316.744 152.21C316.272 151.929 316.287 151.481 316.777 151.21C317.267 150.939 318.047 150.947 318.519 151.229L322.707 153.728C323.179 154.01 323.164 154.458 322.674 154.729C322.184 155 321.404 154.991 320.932 154.709L316.744 152.21ZM326.795 158.208C326.323 157.927 326.338 157.479 326.828 157.208C327.319 156.937 328.098 156.945 328.57 157.227L332.758 159.726C333.23 160.007 333.215 160.455 332.725 160.726C332.235 160.997 331.455 160.989 330.983 160.707L326.795 158.208ZM213.266 38.5119C213.741 38.2323 213.732 37.7842 213.245 37.5111C212.759 37.2381 211.979 37.2434 211.503 37.523L209.328 38.8023C208.853 39.0819 208.862 39.5299 209.349 39.803C209.836 40.0761 210.616 40.0708 211.091 39.7912L213.266 38.5119ZM205.001 43.3733C205.476 43.0937 205.467 42.6456 204.98 42.3726C204.493 42.0995 203.713 42.1048 203.238 42.3844L198.887 44.943C198.412 45.2226 198.421 45.6707 198.908 45.9437C199.395 46.2168 200.175 46.2115 200.65 45.9319L205.001 43.3733ZM194.56 49.514C195.035 49.2344 195.026 48.7864 194.539 48.5133C194.052 48.2402 193.272 48.2455 192.797 48.5251L188.447 51.0838C187.971 51.3634 187.981 51.8114 188.467 52.0845C188.954 52.3575 189.734 52.3523 190.21 52.0726L194.56 49.514ZM184.119 55.6547C184.595 55.3751 184.585 54.9271 184.099 54.654C183.612 54.3809 182.832 54.3862 182.356 54.6658L178.006 57.2245C177.531 57.5041 177.54 57.9521 178.027 58.2252C178.513 58.4983 179.293 58.493 179.769 58.2134L184.119 55.6547ZM163.238 67.9362C163.713 67.6566 163.704 67.2085 163.217 66.9355C162.73 66.6624 161.95 66.6677 161.475 66.9473L157.125 69.5059C156.649 69.7856 156.659 70.2336 157.145 70.5067C157.632 70.7797 158.412 70.7744 158.887 70.4948L163.238 67.9362ZM152.797 74.0769C153.272 73.7973 153.263 73.3493 152.776 73.0762C152.29 72.8031 151.51 72.8084 151.034 73.088L146.684 75.6467C146.209 75.9263 146.218 76.3743 146.705 76.6474C147.191 76.9205 147.971 76.9152 148.447 76.6356L152.797 74.0769ZM142.356 80.2177C142.832 79.938 142.823 79.49 142.336 79.2169C141.849 78.9439 141.069 78.9492 140.594 79.2288L136.243 81.7874C135.768 82.067 135.777 82.515 136.264 82.7881C136.751 83.0612 137.531 83.0559 138.006 82.7763L142.356 80.2177ZM131.916 86.3584C132.391 86.0788 132.382 85.6307 131.895 85.3577C131.408 85.0846 130.628 85.0899 130.153 85.3695L125.803 87.9281C125.327 88.2077 125.336 88.6558 125.823 88.9288C126.31 89.2019 127.09 89.1966 127.565 88.917L131.916 86.3584ZM121.475 92.4991C121.95 92.2195 121.941 91.7715 121.454 91.4984C120.968 91.2253 120.188 91.2306 119.712 91.5102L115.362 94.0689C114.887 94.3485 114.896 94.7965 115.383 95.0696C115.869 95.3427 116.649 95.3374 117.125 95.0577L121.475 92.4991ZM111.034 98.6398C111.51 98.3602 111.501 97.9122 111.014 97.6391C110.527 97.366 109.747 97.3713 109.272 97.6509L104.921 100.21C104.446 100.489 104.455 100.937 104.942 101.21C105.429 101.483 106.209 101.478 106.684 101.198L111.034 98.6398ZM100.594 104.781C101.069 104.501 101.06 104.053 100.573 103.78C100.086 103.507 99.3063 103.512 98.8309 103.792L94.4806 106.35C94.0052 106.63 94.0144 107.078 94.5012 107.351C94.9879 107.624 95.768 107.619 96.2434 107.339L100.594 104.781ZM90.153 110.921C90.6284 110.642 90.6191 110.194 90.1323 109.921C89.6456 109.647 88.8656 109.653 88.3902 109.932L84.0399 112.491C83.5645 112.771 83.5737 113.219 84.0605 113.492C84.5473 113.765 85.3273 113.76 85.8027 113.48L90.153 110.921ZM79.7123 117.062C80.1877 116.782 80.1785 116.334 79.6917 116.061C79.2049 115.788 78.4249 115.794 77.9495 116.073L73.5992 118.632C73.1238 118.911 73.133 119.359 73.6198 119.632C74.1066 119.906 74.8866 119.9 75.362 119.621L79.7123 117.062ZM69.2716 123.203C69.747 122.923 69.7378 122.475 69.251 122.202C68.7642 121.929 67.9842 121.934 67.5088 122.214L63.1585 124.772C62.6831 125.052 62.6923 125.5 63.1791 125.773C63.6659 126.046 64.4459 126.041 64.9213 125.761L69.2716 123.203ZM58.8309 129.343C59.3063 129.064 59.2971 128.616 58.8103 128.343C58.3235 128.07 57.5435 128.075 57.0681 128.355L52.7178 130.913C52.2424 131.193 52.2517 131.641 52.7384 131.914C53.2252 132.187 54.0052 132.182 54.4806 131.902L58.8309 129.343ZM48.3902 135.484C48.8656 135.205 48.8564 134.757 48.3696 134.483C47.8828 134.21 47.1028 134.216 46.6274 134.495L42.2771 137.054C41.8017 137.334 41.811 137.782 42.2977 138.055C42.7845 138.328 43.5645 138.322 44.0399 138.043L48.3902 135.484ZM37.9495 141.625C38.4249 141.345 38.4157 140.897 37.9289 140.624C37.4422 140.351 36.6621 140.356 36.1867 140.636L31.8365 143.195C31.3611 143.474 31.3703 143.922 31.8571 144.195C32.3438 144.468 33.1239 144.463 33.5993 144.184L37.9495 141.625ZM27.5088 147.766C27.9842 147.486 27.975 147.038 27.4882 146.765C27.0015 146.492 26.2215 146.497 25.7461 146.777L21.3958 149.335C20.9204 149.615 20.9296 150.063 21.4164 150.336C21.9032 150.609 22.6832 150.604 23.1585 150.324L27.5088 147.766ZM17.0682 153.906C17.5436 153.627 17.5343 153.179 17.0476 152.906C16.5608 152.633 15.7808 152.638 15.3054 152.917L10.9551 155.476C10.4797 155.756 10.4889 156.204 10.9757 156.477C11.4625 156.75 12.2425 156.745 12.7179 156.465L17.0682 153.906ZM6.62746 160.047C7.10286 159.768 7.09364 159.319 6.60686 159.046C6.12009 158.773 5.34008 158.779 4.86467 159.058L0.514387 161.617C0.0389846 161.896 0.0482213 162.345 0.535001 162.618C1.02178 162.891 1.80178 162.885 2.27718 162.606L6.62746 160.047ZM333.651 139.919C334.125 139.639 334.115 139.191 333.628 138.918C333.14 138.645 332.36 138.651 331.885 138.931L327.68 141.412C327.205 141.692 327.215 142.14 327.703 142.413C328.19 142.685 328.97 142.679 329.445 142.399L333.651 139.919ZM323.557 145.872C324.032 145.592 324.021 145.144 323.534 144.871C323.047 144.599 322.267 144.605 321.792 144.885L317.586 147.365C317.111 147.645 317.122 148.093 317.609 148.366C318.097 148.639 318.877 148.633 319.351 148.353L323.557 145.872ZM313.464 151.826C313.938 151.546 313.928 151.098 313.44 150.825C312.953 150.552 312.173 150.558 311.698 150.838L307.493 153.319C307.018 153.599 307.028 154.047 307.516 154.32C308.003 154.592 308.783 154.586 309.258 154.306L313.464 151.826ZM303.37 157.779C303.845 157.499 303.834 157.051 303.347 156.778C302.859 156.506 302.079 156.512 301.605 156.792L297.399 159.272C296.924 159.552 296.935 160 297.422 160.273C297.91 160.546 298.69 160.54 299.164 160.26L303.37 157.779ZM293.276 163.733C293.751 163.453 293.741 163.005 293.253 162.732C292.766 162.459 291.986 162.465 291.511 162.745L287.306 165.226C286.831 165.506 286.841 165.954 287.329 166.226C287.816 166.499 288.596 166.493 289.071 166.213L293.276 163.733ZM283.183 169.686C283.658 169.406 283.647 168.958 283.16 168.685C282.672 168.413 281.892 168.419 281.418 168.699L277.212 171.179C276.737 171.459 276.748 171.907 277.235 172.18C277.723 172.453 278.503 172.447 278.977 172.167L283.183 169.686ZM273.089 175.64C273.564 175.36 273.554 174.912 273.066 174.639C272.579 174.366 271.799 174.372 271.324 174.652L267.119 177.133C266.644 177.413 266.654 177.861 267.142 178.133C267.629 178.406 268.409 178.4 268.884 178.12L273.089 175.64ZM262.996 181.593C263.471 181.313 263.46 180.865 262.973 180.592C262.485 180.32 261.705 180.326 261.231 180.606L257.025 183.086C256.55 183.366 256.561 183.814 257.048 184.087C257.536 184.36 258.316 184.354 258.79 184.074L262.996 181.593ZM252.902 187.546C253.377 187.266 253.367 186.818 252.879 186.546C252.392 186.273 251.612 186.279 251.137 186.559L246.932 189.04C246.457 189.32 246.467 189.768 246.955 190.04C247.442 190.313 248.222 190.307 248.697 190.027L252.902 187.546ZM242.809 193.5C243.284 193.22 243.273 192.772 242.786 192.499C242.298 192.227 241.518 192.232 241.044 192.513L236.838 194.993C236.363 195.273 236.374 195.721 236.861 195.994C237.349 196.266 238.129 196.261 238.603 195.981L242.809 193.5ZM232.715 199.453C233.19 199.173 233.18 198.725 232.692 198.453C232.205 198.18 231.425 198.186 230.95 198.466L226.745 200.947C226.27 201.227 226.28 201.675 226.768 201.947C227.255 202.22 228.035 202.214 228.51 201.934L232.715 199.453ZM222.622 205.407C223.097 205.127 223.086 204.679 222.599 204.406C222.111 204.134 221.331 204.139 220.857 204.419L216.651 206.9C216.176 207.18 216.187 207.628 216.674 207.901C217.161 208.173 217.941 208.167 218.416 207.887L222.622 205.407ZM212.528 211.36C213.003 211.08 212.993 210.632 212.505 210.36C212.018 210.087 211.238 210.093 210.763 210.373L206.557 212.854C206.083 213.134 206.093 213.582 206.581 213.854C207.068 214.127 207.848 214.121 208.323 213.841L212.528 211.36ZM202.435 217.314C202.91 217.034 202.899 216.586 202.412 216.313C201.924 216.04 201.144 216.046 200.67 216.326L196.464 218.807C195.989 219.087 196 219.535 196.487 219.808C196.974 220.08 197.754 220.074 198.229 219.794L202.435 217.314ZM192.341 223.267C192.816 222.987 192.806 222.539 192.318 222.267C191.831 221.994 191.051 222 190.576 222.28L186.37 224.76C185.896 225.04 185.906 225.488 186.393 225.761C186.881 226.034 187.661 226.028 188.136 225.748L192.341 223.267ZM182.248 229.221C182.722 228.941 182.712 228.493 182.225 228.22C181.737 227.947 180.957 227.953 180.483 228.233L176.277 230.714C175.802 230.994 175.813 231.442 176.3 231.715C176.787 231.987 177.567 231.981 178.042 231.701L182.248 229.221ZM172.154 235.174C172.629 234.894 172.619 234.446 172.131 234.174C171.644 233.901 170.864 233.907 170.389 234.187L166.183 236.667C165.709 236.947 165.719 237.395 166.206 237.668C166.694 237.941 167.474 237.935 167.949 237.655L172.154 235.174ZM162.061 241.128C162.535 240.848 162.525 240.4 162.038 240.127C161.55 239.854 160.77 239.86 160.295 240.14L156.09 242.621C155.615 242.901 155.625 243.349 156.113 243.622C156.6 243.894 157.38 243.888 157.855 243.608L162.061 241.128ZM151.967 247.081C152.442 246.801 152.432 246.353 151.944 246.08C151.457 245.808 150.677 245.814 150.202 246.094L145.996 248.574C145.522 248.854 145.532 249.302 146.019 249.575C146.507 249.848 147.287 249.842 147.762 249.562L151.967 247.081ZM0.381616 140.245C-0.110713 140.514 -0.129094 140.962 0.340558 141.245L4.65274 143.842C5.12239 144.124 5.90223 144.135 6.39456 143.865C6.88689 143.595 6.90527 143.147 6.43562 142.865L2.12343 140.268C1.65378 139.985 0.873943 139.975 0.381616 140.245ZM10.7309 146.476C10.2385 146.746 10.2202 147.194 10.6898 147.477L15.002 150.073C15.4716 150.356 16.2515 150.367 16.7438 150.097C17.2361 149.827 17.2545 149.379 16.7849 149.096L12.4727 146.5C12.003 146.217 11.2232 146.206 10.7309 146.476ZM21.0801 152.708C20.5878 152.978 20.5694 153.426 21.039 153.708L25.3512 156.305C25.8209 156.588 26.6007 156.598 27.0931 156.329C27.5854 156.059 27.6038 155.611 27.1341 155.328L22.8219 152.732C22.3523 152.449 21.5724 152.438 21.0801 152.708ZM31.4294 158.94C30.937 159.209 30.9186 159.657 31.3883 159.94L35.7005 162.537C36.1701 162.82 36.95 162.83 37.4423 162.56C37.9346 162.291 37.953 161.843 37.4834 161.56L33.1712 158.963C32.7015 158.68 31.9217 158.67 31.4294 158.94ZM41.7786 165.171C41.2863 165.441 41.2679 165.889 41.7375 166.172L46.0497 168.768C46.5194 169.051 47.2992 169.062 47.7916 168.792C48.2839 168.522 48.3023 168.074 47.8326 167.792L43.5204 165.195C43.0508 164.912 42.2709 164.902 41.7786 165.171ZM52.1278 171.403C51.6355 171.673 51.6171 172.121 52.0868 172.404L56.399 175C56.8686 175.283 57.6485 175.294 58.1408 175.024C58.6331 174.754 58.6515 174.306 58.1819 174.023L53.8697 171.427C53.4 171.144 52.6202 171.133 52.1278 171.403ZM62.4771 177.635C61.9848 177.905 61.9664 178.353 62.436 178.635L66.7482 181.232C67.2179 181.515 67.9977 181.525 68.49 181.255C68.9824 180.986 69.0007 180.538 68.5311 180.255L64.2189 177.658C63.7493 177.376 62.9694 177.365 62.4771 177.635ZM72.8263 183.867C72.334 184.136 72.3156 184.584 72.7853 184.867L77.0975 187.464C77.5671 187.746 78.347 187.757 78.8393 187.487C79.3316 187.217 79.35 186.769 78.8803 186.487L74.5681 183.89C74.0985 183.607 73.3187 183.597 72.8263 183.867ZM83.1756 190.098C82.6833 190.368 82.6649 190.816 83.1345 191.099L87.4467 193.695C87.9164 193.978 88.6962 193.989 89.1885 193.719C89.6809 193.449 89.6992 193.001 89.2296 192.718L84.9174 190.122C84.4477 189.839 83.6679 189.828 83.1756 190.098ZM93.5248 196.33C93.0325 196.6 93.0141 197.048 93.4837 197.33L97.796 199.927C98.2656 200.21 99.0454 200.22 99.5378 199.951C100.03 199.681 100.048 199.233 99.5788 198.95L95.2666 196.354C94.797 196.071 94.0171 196.06 93.5248 196.33ZM103.874 202.562C103.382 202.831 103.363 203.279 103.833 203.562L108.145 206.159C108.615 206.442 109.395 206.452 109.887 206.182C110.379 205.913 110.398 205.465 109.928 205.182L105.616 202.585C105.146 202.302 104.366 202.292 103.874 202.562ZM114.223 208.793C113.731 209.063 113.713 209.511 114.182 209.794L118.494 212.39C118.964 212.673 119.744 212.684 120.236 212.414C120.729 212.144 120.747 211.696 120.277 211.414L115.965 208.817C115.495 208.534 114.716 208.524 114.223 208.793ZM124.573 215.025C124.08 215.295 124.062 215.743 124.532 216.026L128.844 218.622C129.313 218.905 130.093 218.916 130.586 218.646C131.078 218.376 131.096 217.928 130.627 217.645L126.314 215.049C125.845 214.766 125.065 214.755 124.573 215.025ZM134.922 221.257C134.429 221.527 134.411 221.975 134.881 222.257L139.193 224.854C139.663 225.137 140.442 225.147 140.935 224.877C141.427 224.608 141.445 224.16 140.976 223.877L136.664 221.28C136.194 220.998 135.414 220.987 134.922 221.257ZM145.271 227.489C144.779 227.758 144.76 228.206 145.23 228.489L149.542 231.086C150.012 231.368 150.792 231.379 151.284 231.109C151.776 230.839 151.795 230.391 151.325 230.109L147.013 227.512C146.543 227.229 145.763 227.219 145.271 227.489ZM155.62 233.72C155.128 233.99 155.11 234.438 155.579 234.721L159.891 237.317C160.361 237.6 161.141 237.611 161.633 237.341C162.126 237.071 162.144 236.623 161.674 236.34L157.362 233.744C156.892 233.461 156.113 233.451 155.62 233.72ZM165.97 239.952C165.477 240.222 165.459 240.67 165.929 240.953L170.241 243.549C170.71 243.832 171.49 243.842 171.982 243.573C172.475 243.303 172.493 242.855 172.024 242.572L167.711 239.976C167.242 239.693 166.462 239.682 165.97 239.952ZM176.319 246.184C175.826 246.453 175.808 246.901 176.278 247.184L180.59 249.781C181.06 250.064 181.839 250.074 182.332 249.804C182.824 249.535 182.842 249.087 182.373 248.804L178.061 246.207C177.591 245.925 176.811 245.914 176.319 246.184Z" fill="#D5D9E1"/>
<path d="M141.357 70.7334C155.519 62.1059 178.481 62.1059 192.643 70.7334L283.379 126.01C297.541 134.637 297.54 148.625 283.378 157.253L192.643 212.529C178.481 221.157 155.519 221.157 141.357 212.529L50.6215 157.253C36.4595 148.625 36.4595 134.637 50.6215 126.01L141.357 70.7334Z" fill="url(#paint0_linear_6_30)"/>
<path d="M141.357 39.4613C155.519 30.8338 178.481 30.8338 192.643 39.4613L283.379 94.7378C297.541 103.365 297.54 117.353 283.378 125.981L192.643 181.257C178.481 189.885 155.519 189.885 141.357 181.257L50.6215 125.981C36.4595 117.353 36.4595 103.365 50.6215 94.7378L141.357 39.4613Z" fill="url(#paint1_linear_6_30)"/>
<path d="M142.942 5.56137C156.671 -1.85378 177.329 -1.85379 191.058 5.56135L269.369 47.858C284.661 56.1175 293.414 67.9715 293.414 80.4217C293.414 86.2378 289.592 91.8119 282.801 95.8998L192.489 150.264C178.362 158.767 155.637 158.767 141.511 150.264L51.1988 95.8997C44.4077 91.8118 40.5857 86.2378 40.5856 80.4217C40.5856 67.9715 49.3387 56.1175 64.6309 47.858L142.942 5.56137Z" fill="url(#paint2_linear_6_30)"/>
</g>
<defs>
<linearGradient id="paint0_linear_6_30" x1="181.071" y1="122.434" x2="276.982" y2="233.673" gradientUnits="userSpaceOnUse">
<stop stop-color="#FACAA3"/>
<stop offset="1" stop-color="#FCE4D1"/>
</linearGradient>
<linearGradient id="paint1_linear_6_30" x1="167" y1="109.5" x2="167" y2="219" gradientUnits="userSpaceOnUse">
<stop stop-color="#F27A1A"/>
<stop offset="1" stop-color="#F59548"/>
</linearGradient>
<linearGradient id="paint2_linear_6_30" x1="241.971" y1="29.5057" x2="160.801" y2="162.746" gradientUnits="userSpaceOnUse">
<stop stop-color="#EC490F"/>
<stop offset="1" stop-color="#EF6114"/>
</linearGradient>
<clipPath id="clip0_6_30">
<rect width="334" height="340" fill="white"/>
</clipPath>
</defs>
</svg>
